<svg width="1436" height="337" viewBox="0 0 1436 337" fill="none" xmlns="http://www.w3.org/2000/svg">
<rect x="1" y="1" width="335" height="335" rx="167.5" fill="#68AA71"/>
<path d="M240.9 166C241.16 165.7 271.17 131.55 248.58 92.9201C225.9 54.1201 171.44 56.01 171.44 56.01C171.44 56.01 219.669 95.1301 213.439 122.59C207.209 150.05 148.44 168.1 142.99 142.17C137.54 116.24 167.239 105.79 167.239 105.79C160.33 101.758 152.452 99.6856 144.452 99.7966C136.453 99.9076 128.635 102.198 121.84 106.42C114.7 110.463 108.54 116.032 103.802 122.731C99.0635 129.429 95.8631 137.091 94.4292 145.17C84.6239 146.67 75.0263 149.304 65.8293 153.02C63.3463 154.218 61.2249 156.052 59.6794 158.335C58.1339 160.618 57.2192 163.27 57.0293 166.02C57.2192 168.771 58.1339 171.422 59.6794 173.705C61.2249 175.988 63.3463 177.822 65.8293 179.02C75.0268 182.735 84.6242 185.369 94.4292 186.87C95.8625 194.949 99.0634 202.612 103.802 209.31C108.54 216.009 114.7 221.578 121.84 225.62C128.635 229.842 136.453 232.133 144.452 232.244C152.452 232.355 160.33 230.282 167.239 226.25C167.239 226.25 137.58 215.8 142.99 189.87C148.4 163.94 207.169 181.99 213.439 209.45C219.709 236.91 171.44 276.03 171.44 276.03C171.44 276.03 225.9 277.92 248.58 239.12C271.17 200.45 241.17 166.3 240.9 166Z" fill="white"/>
<path d="M416.941 294H358.446L447.574 35.8181H517.919L606.921 294H548.427L483.755 94.8167H481.738L416.941 294ZM413.285 192.517H551.452V235.127H413.285V192.517Z" fill="#131714"/>
<path d="M685.649 238.279L685.775 173.86H693.591L755.615 100.364H817.261L733.932 197.686H721.199L685.649 238.279ZM636.988 294V35.8181H690.691V294H636.988ZM758.01 294L701.029 209.662L736.831 171.717L820.917 294H758.01Z" fill="#131714"/>
<path d="M923.124 297.782C903.542 297.782 886.608 293.622 872.32 285.301C858.117 276.897 847.149 265.215 839.417 250.255C831.685 235.211 827.819 217.772 827.819 197.938C827.819 177.936 831.685 160.455 839.417 145.495C847.149 130.451 858.117 118.769 872.32 110.449C886.608 102.044 903.542 97.8423 923.124 97.8423C942.707 97.8423 959.599 102.044 973.803 110.449C988.09 118.769 999.1 130.451 1006.83 145.495C1014.56 160.455 1018.43 177.936 1018.43 197.938C1018.43 217.772 1014.56 235.211 1006.83 250.255C999.1 265.215 988.09 276.897 973.803 285.301C959.599 293.622 942.707 297.782 923.124 297.782ZM923.377 256.18C932.285 256.18 939.723 253.659 945.69 248.616C951.657 243.49 956.154 236.514 959.179 227.69C962.289 218.865 963.844 208.822 963.844 197.56C963.844 186.298 962.289 176.255 959.179 167.43C956.154 158.606 951.657 151.63 945.69 146.503C939.723 141.377 932.285 138.813 923.377 138.813C914.384 138.813 906.82 141.377 900.685 146.503C894.634 151.63 890.053 158.606 886.944 167.43C883.918 176.255 882.405 186.298 882.405 197.56C882.405 208.822 883.918 218.865 886.944 227.69C890.053 236.514 894.634 243.49 900.685 248.616C906.82 253.659 914.384 256.18 923.377 256.18Z" fill="#131714"/>
<path d="M1102.01 238.279L1102.14 173.86H1109.95L1171.98 100.364H1233.62L1150.29 197.686H1137.56L1102.01 238.279ZM1053.35 294V35.8181H1107.05V294H1053.35ZM1174.37 294L1117.39 209.662L1153.19 171.717L1237.28 294H1174.37Z" fill="#131714"/>
<path d="M1339.49 297.782C1319.9 297.782 1302.97 293.622 1288.68 285.301C1274.48 276.897 1263.51 265.215 1255.78 250.255C1248.05 235.211 1244.18 217.772 1244.18 197.938C1244.18 177.936 1248.05 160.455 1255.78 145.495C1263.51 130.451 1274.48 118.769 1288.68 110.449C1302.97 102.044 1319.9 97.8423 1339.49 97.8423C1359.07 97.8423 1375.96 102.044 1390.17 110.449C1404.45 118.769 1415.46 130.451 1423.19 145.495C1430.93 160.455 1434.79 177.936 1434.79 197.938C1434.79 217.772 1430.93 235.211 1423.19 250.255C1415.46 265.215 1404.45 276.897 1390.17 285.301C1375.96 293.622 1359.07 297.782 1339.49 297.782ZM1339.74 256.18C1348.65 256.18 1356.09 253.659 1362.05 248.616C1368.02 243.49 1372.52 236.514 1375.54 227.69C1378.65 218.865 1380.21 208.822 1380.21 197.56C1380.21 186.298 1378.65 176.255 1375.54 167.43C1372.52 158.606 1368.02 151.63 1362.05 146.503C1356.09 141.377 1348.65 138.813 1339.74 138.813C1330.75 138.813 1323.18 141.377 1317.05 146.503C1311 151.63 1306.42 158.606 1303.31 167.43C1300.28 176.255 1298.77 186.298 1298.77 197.56C1298.77 208.822 1300.28 218.865 1303.31 227.69C1306.42 236.514 1311 243.49 1317.05 248.616C1323.18 253.659 1330.75 256.18 1339.74 256.18Z" fill="#131714"/>
</svg>
